<?xml version="1.0" encoding="UTF-8" standalone="no"?>
<!-- Created with Inkscape (http://www.inkscape.org/) -->

<svg
   width="161.36494mm"
   height="50.024513mm"
   viewBox="0 0 161.36494 50.024511"
   version="1.1"
   id="svg1"
   xmlns="http://www.w3.org/2000/svg"
   xmlns:svg="http://www.w3.org/2000/svg">
  <defs
     id="defs1" />
  <g
     id="layer1"
     transform="translate(-49.355167,-89.36231)">
    <path
       id="path9"
       style="fill:none;stroke:#59b676;stroke-width:3;stroke-linejoin:bevel;stroke-dasharray:none;stroke-opacity:1"
       d="m 174.11635,121.42243 c 4.52439,-3.27446 11.19329,-7.05616 17.86217,-7.05616 6.66887,0 13.33778,3.78173 17.86214,7.05616 l -35.72431,9.40823 c 4.52439,3.27446 11.19329,7.05616 17.86217,7.05616 6.6689,0 13.33778,-3.78173 17.86217,-7.05616 m -82.76545,-2.14449 c 4.52439,5.41895 11.19327,9.20065 17.86216,9.20065 11.76028,0 23.52055,-11.76027 23.52055,-23.52055 V 90.845715 M 78.467535,121.42243 c 4.452218,6.9282 11.940485,16.46439 19.428753,16.46439 11.760282,0 23.520562,-11.76027 23.520562,-11.76027 0,0 11.76027,-11.76028 23.52055,-11.76028 6.66889,0 13.33777,3.78173 17.86217,7.05616 M 50.855177,90.845715 v 23.520555 c 4e-6,7.05616 2e-6,23.52055 7.056166,23.52055 7.056165,0 16.464392,-39.984936 63.505507,-47.041105"
       transform="translate(-1.5625e-6)" />
  </g>
</svg>
