<?xml version="1.0" encoding="UTF-8" standalone="no"?>
<!-- Created with Inkscape (http://www.inkscape.org/) -->

<svg
   width="161.36494mm"
   height="50.024506mm"
   viewBox="0 0 161.36494 50.024503"
   version="1.1"
   id="svg1"
   xmlns="http://www.w3.org/2000/svg"
   xmlns:svg="http://www.w3.org/2000/svg">
  <defs
     id="defs1" />
  <g
     id="layer1"
     transform="translate(-49.35517,-139.98781)">
    <path
       id="path9-3"
       style="fill:none;stroke:#2d3436;stroke-width:3;stroke-linejoin:bevel;stroke-dasharray:none;stroke-opacity:1"
       d="m 174.11636,222.04792 c 4.52439,-3.27446 11.19329,-7.05616 17.86217,-7.05616 6.66887,0 13.33778,3.78173 17.86214,7.05616 l -35.72431,9.40823 c 4.52439,3.27446 11.19329,7.05616 17.86217,7.05616 6.6689,0 13.33778,-3.78173 17.86217,-7.05616 m -82.76545,-2.14449 c 4.52439,5.41895 11.19327,9.20065 17.86216,9.20065 11.76028,0 23.52055,-11.76027 23.52055,-23.52055 v -23.52055 m -89.990423,30.57671 c 4.45222,6.9282 11.940486,16.46439 19.428746,16.46439 11.760297,0 23.520577,-11.76027 23.520577,-11.76027 0,0 11.76027,-11.76028 23.52055,-11.76028 6.66889,0 13.33777,3.78173 17.86217,7.05616 M 50.855177,191.47121 v 23.52055 c 1e-5,7.05616 1e-5,23.52055 7.05617,23.52055 7.05616,0 16.46439,-39.98493 63.505513,-47.0411"
       transform="translate(1.0833333e-6)" />
    <path
       id="path9-36"
       style="fill:none;stroke:#b65999;stroke-width:3;stroke-linejoin:bevel;stroke-dasharray:none;stroke-opacity:1"
       d="m 174.11635,172.04793 c 4.52439,-3.27446 11.19329,-7.05616 17.86217,-7.05616 6.66887,0 13.33778,3.78173 17.86214,7.05616 l -35.72431,9.40823 c 4.52439,3.27446 11.19329,7.05616 17.86217,7.05616 6.6689,0 13.33778,-3.78173 17.86217,-7.05616 m -82.76545,-2.14449 c 4.52439,5.41895 11.19327,9.20065 17.86216,9.20065 11.76028,0 23.52055,-11.76027 23.52055,-23.52055 v -23.52055 m -89.990413,30.57671 c 4.45222,6.9282 11.94049,16.46439 19.42875,16.46439 11.760283,0 23.520563,-11.76027 23.520563,-11.76027 0,0 11.76027,-11.76028 23.52055,-11.76028 6.66889,0 13.33777,3.78173 17.86217,7.05616 M 50.855177,141.47122 v 23.52055 c 1e-5,7.05616 1e-5,23.52055 7.05617,23.52055 7.05616,0 16.46439,-39.98493 63.505503,-47.0411"
       transform="translate(1.0833333e-6)" />
  </g>
</svg>
